<svg xmlns="http://www.w3.org/2000/svg" xmlns:svg="http://www.w3.org/2000/svg" id="svg8" width="351.358" height="405.123" version="1.1" viewBox="0 0 92.963 107.189"><metadata id="metadata5"/><g id="layer2" transform="translate(-61.112559,-78.160466)"><g id="g4644" transform="matrix(1,0,0,-1,2.138671,277.94235)" style="fill:none;fill-opacity:.34351148;stroke:#00a500;stroke-width:1;stroke-linejoin:round;stroke-miterlimit:4;stroke-dasharray:none;stroke-opacity:.25572576"><path style="opacity:1;fill:none;fill-opacity:.34351148;stroke:#00a500;stroke-width:3.77952766;stroke-linejoin:round;stroke-miterlimit:4;stroke-dasharray:none;stroke-opacity:.25572576" id="path4638" d="M 398.57227,351.84766 224.7832,452.18359 398.57227,552.51953 572.35938,452.18359 Z" transform="scale(0.26458333)"/><path style="opacity:1;fill:none;fill-opacity:.34351148;stroke:#00a500;stroke-width:3.77952766;stroke-linejoin:round;stroke-miterlimit:4;stroke-dasharray:none;stroke-opacity:.25572576" id="path4640" d="M 572.35938,452.18359 398.57227,552.51953 V 753.19141 L 572.35938,652.85547 Z" transform="scale(0.26458333)"/><path id="path4642" d="m 59.473888,119.64024 45.981172,26.54722 v 53.09443 L 59.473888,172.73467 Z" style="opacity:1;fill:none;fill-opacity:.34351148;stroke:#00a500;stroke-width:1;stroke-linejoin:round;stroke-miterlimit:4;stroke-dasharray:none;stroke-opacity:.25572576"/></g></g><g id="layer3" transform="translate(-61.112559,-78.160466)"><g id="g4554" transform="matrix(-0.39771468,0.69855937,-0.69855937,-0.39771468,366.58103,126.65261)"><g id="g4662" transform="translate(59.46839,130.66062)"><path id="path4548" d="M 398.57227,351.84766 224.7832,452.18359 398.57227,552.51953 572.35938,452.18359 Z" transform="scale(0.26458333)" style="opacity:1;fill:#06f;fill-opacity:.34509804;stroke:#00a5ff;stroke-width:4.70182848;stroke-miterlimit:4;stroke-dasharray:none;stroke-opacity:1"/><path id="path4550" d="M 572.35938,452.18359 398.57227,552.51953 V 753.19141 L 572.35938,652.85547 Z" transform="scale(0.26458333)" style="opacity:1;fill:#04a;fill-opacity:.34509804;stroke:#00a5ff;stroke-width:4.29276943;stroke-miterlimit:4;stroke-dasharray:none;stroke-opacity:1"/><path style="opacity:1;fill:#59f;fill-opacity:.34509804;stroke:#00a5ff;stroke-width:1.24402535;stroke-miterlimit:4;stroke-dasharray:none;stroke-opacity:1" id="path4552" d="m 59.473888,119.64024 45.981172,26.54722 v 53.09443 L 59.473888,172.73467 Z"/></g></g></g><g id="layer4" transform="translate(-61.112559,-78.160466)"><path style="fill:#e000ae;fill-opacity:1;stroke-width:.12476727" id="path4732" d="m 84.610811,107.36071 v 2.55773 2.55772 h 2.49535 2.49534 v -2.55772 -2.55773 h -2.49534 z m 40.674129,0 v 2.55773 2.55772 h 2.49535 2.49534 v -2.55772 -2.55773 h -2.49534 z m -35.558669,5.11545 v 2.55773 2.55773 h 2.49535 2.49534 v -2.55773 -2.55773 h -2.49534 z m 4.99069,5.11546 v 2.55773 2.55773 h -2.49534 -2.49535 v 2.49534 2.49535 h -2.55773 -2.55773 v 2.55773 2.55773 h -2.55773 -2.55773 v 10.16853 10.16853 h 2.55773 2.55773 v -7.67562 -7.67587 l 2.52654,0.0339 2.52654,0.0336 0.0327,5.08427 0.0327,5.08426 h 2.49388 2.49388 v 2.55919 2.5592 l 5.08427,-0.0327 5.084269,-0.0326 v -2.49534 -2.49535 l -5.084269,-0.0324 -5.08427,-0.0327 v -2.55626 -2.55651 h 12.726269 12.72626 v 2.55651 2.55626 l -5.05868,0.0327 -5.05893,0.0324 v 2.49535 2.49534 l 5.05893,0.0326 5.05868,0.0327 v -2.55919 -2.55919 h 2.49388 2.49413 l 0.0324,-5.08426 0.0327,-5.08427 2.52653,-0.0336 2.52654,-0.0339 v 7.67586 7.67563 h 2.55773 2.55773 v -10.16854 -10.16853 h -2.55773 -2.55773 v -2.55773 -2.55773 h -2.55773 -2.55773 v -2.49535 -2.49534 h -2.49535 -2.49534 v -2.55773 -2.55773 h -2.55773 -2.55773 v 2.55773 2.55773 h -7.6108 -7.610809 v -2.55773 -2.55773 h -2.55774 z m 25.452519,0 h 2.49535 2.49535 v -2.55773 -2.55773 h -2.49535 -2.49535 v 2.55773 z m -25.452519,10.10615 h 5.11546 5.115459 v 2.55773 2.55773 h -5.115459 -5.11546 v -2.55773 z m 15.221609,0 h 5.11546 5.11545 v 2.55773 2.55773 h -5.11545 -5.11546 v -2.55773 z"/></g><g id="layer1" transform="translate(-61.112559,-78.160466)" style="display:inline"><g style="fill:#007200;fill-opacity:.34351148;stroke:#00a500;stroke-width:1;stroke-linejoin:round;stroke-miterlimit:4;stroke-dasharray:none;stroke-opacity:1" id="g4628" transform="translate(-131.49557,42.495842)"><path id="path4529" d="m 239.09034,36.164616 -45.98169,26.547215 45.98169,26.547217 45.98117,-26.547217 z" style="opacity:1;fill:#4aba19;fill-opacity:.34509804;stroke:#00a500;stroke-width:1;stroke-linejoin:round;stroke-miterlimit:4;stroke-dasharray:none;stroke-opacity:1"/><path id="path4531" d="m 285.07151,62.711828 -45.98117,26.54722 v 53.094432 l 45.98117,-26.54722 z" style="opacity:1;fill:#007900;fill-opacity:.34351148;stroke:#00a500;stroke-width:1;stroke-linejoin:round;stroke-miterlimit:4;stroke-dasharray:none;stroke-opacity:1"/><path style="opacity:1;fill:#003d00;fill-opacity:.34509804;stroke:#00a500;stroke-width:1;stroke-linejoin:round;stroke-miterlimit:4;stroke-dasharray:none;stroke-opacity:1" id="path4541" d="m 193.10865,62.711831 45.98117,26.54722 v 53.094429 l -45.98117,-26.54722 z"/></g></g></svg>